<?xml version="1.0" encoding="utf-8"?>
<svg width="50px" height="25px" viewBox="0 0 50 25" version="1.1" xmlns:xlink="http://www.w3.org/1999/xlink" xmlns="http://www.w3.org/2000/svg">
  <defs>
    <path d="M0 0L15 0L15 15L0 15L0 0Z" id="path_1" />
    <clipPath id="mask_1">
      <use xlink:href="#path_1" />
    </clipPath>
  </defs>
  <g id="Group">
    <path d="M0 0L50 0L50 25L0 25L0 0Z" id="Rectangle" fill="#D3D3D3" fill-opacity="0" fill-rule="evenodd" stroke="none" />
    <path d="M33.817 14.0167C32.3326 10.1497 34.163 5.8503 37.9052 4.41377C41.6475 2.97725 35.1815 6.40958 37.5513 12.5832C39.9212 18.7568 47.023 16.981 43.2808 18.4175C39.5385 19.854 35.3014 17.8837 33.817 14.0167Z" id="Ellipse-Copy-2" fill="#2D314D" fill-rule="evenodd" stroke="none" />
    <g id="Idea-icon" transform="translate(5 5)">
      <path d="M0 0L15 0L15 15L0 15L0 0Z" id="Background" fill="none" fill-rule="evenodd" stroke="none" />
      <g clip-path="url(#mask_1)">
        <path d="M6.875 0L6.875 1.875L8.125 1.875L8.125 0L6.875 0L6.875 0ZM2.63916 1.75537L1.75537 2.63916L3.08105 3.96484L3.96484 3.08105L2.63916 1.75537L2.63916 1.75537ZM12.3608 1.75537L11.0352 3.08105L11.9189 3.96484L13.2446 2.63916L12.3608 1.75537L12.3608 1.75537ZM7.5 3.125C5.0875 3.125 3.125 5.0875 3.125 7.5C3.125 9.24063 4.14937 10.7428 5.625 11.4465L5.625 13.125C5.625 13.8144 6.18563 14.375 6.875 14.375L8.125 14.375C8.81437 14.375 9.375 13.8144 9.375 13.125L9.375 11.4465C10.8506 10.7428 11.875 9.24063 11.875 7.5C11.875 5.0875 9.9125 3.125 7.5 3.125L7.5 3.125ZM0 6.875L0 8.125L1.875 8.125L1.875 6.875L0 6.875L0 6.875ZM13.125 6.875L13.125 8.125L15 8.125L15 6.875L13.125 6.875L13.125 6.875ZM3.08105 11.0352L1.75537 12.3608L2.63916 13.2446L3.96484 11.9189L3.08105 11.0352L3.08105 11.0352ZM11.9189 11.0352L11.0352 11.9189L12.3608 13.2446L13.2446 12.3608L11.9189 11.0352L11.9189 11.0352Z" id="Shape" fill="#FAFAFA" fill-rule="evenodd" stroke="none" />
      </g>
    </g>
  </g>
</svg>