<?xml version="1.0" encoding="utf-8"?>
<svg width="50px" height="52.033325px" viewBox="0 0 50 52.033325" version="1.1" xmlns:xlink="http://www.w3.org/1999/xlink" xmlns="http://www.w3.org/2000/svg">
  <path d="M2.999 0L47.001 0Q47.1483 0 47.295 0.014441Q47.4416 0.0288819 47.5861 0.0576248Q47.7306 0.0863677 47.8716 0.129136Q48.0126 0.171904 48.1487 0.228285Q48.2848 0.284666 48.4147 0.354117Q48.5447 0.423569 48.6671 0.505421Q48.7896 0.587274 48.9035 0.68074Q49.0174 0.774206 49.1216 0.878385Q49.2258 0.982563 49.3193 1.09645Q49.4127 1.21034 49.4946 1.33284Q49.5764 1.45534 49.6459 1.58528Q49.7153 1.71521 49.7717 1.85133Q49.8281 1.98744 49.8709 2.12843Q49.9136 2.26942 49.9424 2.41392Q49.9711 2.55842 49.9856 2.70504Q50 2.85166 50 2.99899L50 12.5333L31.3333 12.5333L31.3333 18.7L50 18.7L50 49.001Q50 49.1483 49.9856 49.295Q49.9711 49.4416 49.9424 49.5861Q49.9136 49.7306 49.8709 49.8716Q49.8281 50.0126 49.7717 50.1487Q49.7153 50.2848 49.6459 50.4147Q49.5764 50.5447 49.4946 50.6672Q49.4127 50.7897 49.3193 50.9035Q49.2258 51.0174 49.1216 51.1216Q49.0174 51.2258 48.9035 51.3193Q48.7897 51.4127 48.6672 51.4946Q48.5447 51.5764 48.4147 51.6459Q48.2848 51.7153 48.1487 51.7717Q48.0126 51.8281 47.8716 51.8709Q47.7306 51.9136 47.5861 51.9424Q47.4416 51.9711 47.295 51.9856Q47.1483 52 47.001 52L37.5 52L37.5 31.2L31.3333 31.2L31.3333 41.7L18.8333 41.7L18.8333 31.2L12.5 31.2L12.5 52.0333L2.991 52.008Q2.84392 52.0076 2.69759 51.9928Q2.55125 51.978 2.40706 51.949Q2.26288 51.9199 2.12222 51.8769Q1.98157 51.8339 1.84579 51.7774Q1.71002 51.7208 1.58044 51.6513Q1.45085 51.5817 1.32869 51.4998Q1.20653 51.4179 1.09298 51.3244Q0.979425 51.2309 0.875562 51.1268Q0.771698 51.0226 0.678524 50.9088Q0.585349 50.795 0.503758 50.6726Q0.422166 50.5503 0.352941 50.4205Q0.283716 50.2907 0.227521 50.1548Q0.171326 50.0189 0.128701 49.8781Q0.0860761 49.7373 0.0574301 49.5931Q0.0287841 49.4488 0.0143921 49.3024Q0 49.156 0 49.009L0 18.7L18.8333 18.7L18.8333 12.5333L0 12.5333L0 2.99899Q0 2.85166 0.014441 2.70504Q0.028882 2.55842 0.0576249 2.41392Q0.0863679 2.26942 0.129136 2.12843Q0.171904 1.98744 0.228285 1.85133Q0.284667 1.71521 0.354118 1.58528Q0.42357 1.45534 0.505423 1.33284Q0.587276 1.21034 0.680742 1.09645Q0.774208 0.982563 0.878387 0.878385Q0.982566 0.774206 1.09645 0.68074Q1.21034 0.587274 1.33284 0.505421Q1.45535 0.423569 1.58528 0.354117Q1.71522 0.284666 1.85133 0.228285Q1.98745 0.171904 2.12844 0.129136Q2.26942 0.0863677 2.41392 0.0576248Q2.55843 0.0288819 2.70505 0.014441Q2.85167 0 2.999 0Z" id="Rectangle" fill="#2D314D" fill-rule="evenodd" stroke="none" />
</svg>