<?xml version="1.0" encoding="utf-8"?>
<svg width="201px" height="30px" viewBox="0 0 201 30" version="1.1" xmlns:xlink="http://www.w3.org/1999/xlink" xmlns="http://www.w3.org/2000/svg">
  <defs>
    <path d="M0 0L201 0L201 30L0 30L0 0Z" id="path_1" />
    <clipPath id="mask_1">
      <use xlink:href="#path_1" />
    </clipPath>
  </defs>
  <g id="svg">
    <path d="M0 0L201 0L201 30L0 30L0 0Z" id="Background" fill="#FFFFFF" fill-opacity="0" fill-rule="evenodd" stroke="none" />
    <g clip-path="url(#mask_1)">
      <g id="Group" transform="translate(0 0.004910209)">
        <path d="M3.00391 4.02099e-06L27.0059 0.03927C27.104 0.0394305 27.2019 0.0443942 27.2995 0.0541613C27.3972 0.0639284 27.4941 0.0784519 27.5903 0.0977318C27.6865 0.117011 27.7815 0.140954 27.8754 0.169562C27.9692 0.198169 28.0614 0.231302 28.1521 0.268962C28.2427 0.306621 28.3312 0.348626 28.4177 0.394976C28.5042 0.441326 28.5882 0.491798 28.6697 0.546394C28.7512 0.600989 28.8299 0.659444 28.9057 0.72176C28.9814 0.784075 29.054 0.849951 29.1233 0.919389C29.1926 0.988823 29.2584 1.06149 29.3206 1.13738C29.3828 1.21327 29.4411 1.29203 29.4956 1.37364C29.5501 1.45526 29.6004 1.53935 29.6466 1.6259C29.6928 1.71246 29.7347 1.80107 29.7722 1.89173C29.8097 1.9824 29.8426 2.07468 29.8711 2.16858C29.8996 2.26249 29.9234 2.35756 29.9425 2.45379C29.9616 2.55003 29.976 2.64697 29.9856 2.74462C29.9952 2.84227 30 2.94015 30 3.03827L30 7.22123L18.8 7.22123L18.8 10.7766L30 10.7766L30 26.9769C30 27.0751 29.9952 27.1731 29.9855 27.2708C29.9759 27.3685 29.9615 27.4656 29.9424 27.5619C29.9232 27.6582 29.8993 27.7534 29.8708 27.8474C29.8423 27.9414 29.8093 28.0338 29.7717 28.1245C29.7341 28.2152 29.6922 28.3039 29.6459 28.3906C29.5996 28.4772 29.5491 28.5613 29.4946 28.643C29.44 28.7247 29.3815 28.8035 29.3192 28.8794C29.2569 28.9553 29.1911 29.028 29.1216 29.0975C29.0521 29.167 28.9794 29.2328 28.9035 29.2951C28.8276 29.3574 28.7488 29.4159 28.6671 29.4704C28.5854 29.525 28.5013 29.5754 28.4147 29.6217C28.3281 29.668 28.2394 29.71 28.1486 29.7476C28.0579 29.7852 27.9655 29.8182 27.8715 29.8467C27.7776 29.8752 27.6824 29.8991 27.5861 29.9182C27.4898 29.9374 27.3927 29.9518 27.2949 29.9614C27.1972 29.9711 27.0992 29.9759 27.001 29.9759L22.5 29.9759L22.5 17.9836L18.8 17.9836L18.8 24.0374L11.3 24.0374L11.3 17.9836L7.5 17.9836L7.5 29.9951L2.99132 29.9835C2.89325 29.9833 2.79544 29.9783 2.69788 29.9684C2.60031 29.9585 2.50346 29.9439 2.40733 29.9246C2.3112 29.9053 2.21624 29.8813 2.12246 29.8526C2.02869 29.8239 1.93654 29.7907 1.84601 29.753C1.75548 29.7153 1.66702 29.6733 1.58062 29.6269C1.49422 29.5806 1.4103 29.5301 1.32885 29.4754C1.2474 29.4208 1.16882 29.3624 1.09311 29.3001C1.0174 29.2378 0.944922 29.1719 0.875672 29.1024C0.806421 29.033 0.740734 28.9604 0.67861 28.8845C0.616486 28.8086 0.558224 28.7299 0.503823 28.6483C0.449422 28.5667 0.399143 28.4826 0.352987 28.3961C0.306831 28.3096 0.265019 28.2211 0.227551 28.1304C0.190083 28.0398 0.157139 27.9476 0.128718 27.8537C0.100298 27.7598 0.0765376 27.6648 0.0574377 27.5687C0.0383378 27.4725 0.0239899 27.3756 0.014394 27.278C0.004798 27.1804 0 27.0826 0 26.9845L0 10.7766L11.3 10.7766L11.3 7.22123L0 7.22123L0 2.999C0 2.90068 0.0048237 2.80259 0.0144711 2.70474C0.0241185 2.60689 0.038543 2.50975 0.0577447 2.41332C0.0769464 2.31689 0.100832 2.22164 0.129403 2.12756C0.157974 2.03348 0.191091 1.94103 0.228755 1.8502C0.266419 1.75937 0.308448 1.67062 0.354841 1.58393C0.401235 1.49724 0.45177 1.41303 0.506445 1.33132C0.561121 1.2496 0.619674 1.17076 0.682104 1.0948C0.744534 1.01884 0.81054 0.946121 0.880122 0.876653C0.949704 0.807185 1.02253 0.741298 1.09859 0.678992C1.17465 0.616686 1.25359 0.558262 1.3354 0.503721C1.41721 0.449179 1.50149 0.398782 1.58826 0.35253C1.67503 0.306278 1.76385 0.264394 1.85473 0.226879C1.94562 0.189364 2.03812 0.156398 2.13225 0.127982C2.22638 0.0995648 2.32167 0.0758344 2.41814 0.0567905C2.5146 0.0377466 2.61176 0.023481 2.70962 0.0139937C2.80749 0.00450639 2.90558 -0.000156832 3.00391 4.02099e-06L3.00391 4.02099e-06L3.00391 4.02099e-06Z" id="Rectangle" fill="#737582" fill-rule="evenodd" stroke="none" />
        <g id="MilesMosweu" transform="translate(34.95313 8.485809)">
          <path d="M29.3598 17.5293C29.3598 18.0175 29.6039 18.2617 30.0922 18.2617L32.0453 18.2617C32.5336 18.2617 32.7778 18.0175 32.7778 17.5293L32.7778 0.73242C32.7778 0.24414 32.5336 0 32.0453 0L31.1908 0C30.9466 0 30.7351 0.154623 30.5561 0.46387L29.6161 2.11178C29.4452 2.41291 29.3598 2.74658 29.3598 3.11278L29.3598 17.5293L29.3598 17.5293ZM23.0539 3.56448C22.5656 3.56448 22.3215 3.32035 22.3215 2.83208L22.3215 1.26953C22.3215 0.78125 22.5656 0.53711 23.0539 0.53711L25.0071 0.53711C25.4953 0.53711 25.7395 0.78125 25.7395 1.26953L25.7395 2.83208C25.7395 3.32035 25.4953 3.56448 25.0071 3.56448L23.0539 3.56448L23.0539 3.56448ZM0.854492 18.2617C0.284832 18.2617 0 17.9565 0 17.3462L0 1.67238C0 1.06202 0.284832 0.75684 0.854492 0.75684L4.39453 0.75684C4.86653 0.75684 5.20426 1.08235 5.40771 1.73338L8.71577 12.439C8.8623 12.9028 8.96404 13.2833 9.02097 13.5803C9.07797 13.8773 9.1268 14.2293 9.16747 14.6363L9.24067 14.6363C9.28141 14.2293 9.33024 13.8773 9.38717 13.5803C9.44417 13.2833 9.54591 12.9028 9.69237 12.439L13.0005 1.73338C13.2039 1.08235 13.5417 0.75684 14.0137 0.75684L17.5537 0.75684C18.1233 0.75684 18.4082 1.06202 18.4082 1.67238L18.4082 17.3462C18.4082 17.9565 18.1233 18.2617 17.5537 18.2617L15.6983 18.2617C15.433 18.2617 15.2295 18.1955 15.0878 18.0633C14.9251 17.9114 14.8438 17.6724 14.8438 17.3462L14.8438 7.26318C14.8438 6.77491 14.8641 6.28665 14.9048 5.79838L14.8194 5.79838L11.2915 17.273C11.0881 17.9321 10.7381 18.2617 10.2417 18.2617L8.16647 18.2617C7.67007 18.2617 7.32015 17.9321 7.11669 17.273L3.58886 5.79838L3.50341 5.79838C3.54411 6.28665 3.56445 6.77491 3.56445 7.26318L3.56445 17.3462C3.56445 17.9565 3.27962 18.2617 2.70996 18.2617L0.854492 18.2617L0.854492 18.2617ZM64.7447 18.2617C64.175 18.2617 63.8902 17.9565 63.8902 17.3462L63.8902 1.67238C63.8902 1.06202 64.175 0.75684 64.7447 0.75684L68.2847 0.75684C68.7567 0.75684 69.0944 1.08235 69.2979 1.73338L72.606 12.439C72.7524 12.9028 72.8542 13.2833 72.9112 13.5803C72.9681 13.8773 73.0169 14.2293 73.0576 14.6363L73.1309 14.6363C73.1715 14.2293 73.2204 13.8773 73.2774 13.5803C73.3343 13.2833 73.436 12.9028 73.5825 12.439L76.8907 1.73338C77.0941 1.08235 77.4318 0.75684 77.9038 0.75684L81.4439 0.75684C82.0135 0.75684 82.2984 1.06202 82.2984 1.67238L82.2984 17.3462C82.2984 17.9565 82.0135 18.2617 81.4439 18.2617L79.5884 18.2617C79.3232 18.2617 79.1197 18.1955 78.978 18.0633C78.8152 17.9114 78.7339 17.6724 78.7339 17.3462L78.7339 7.26318C78.7339 6.77491 78.7542 6.28665 78.7949 5.79838L78.7095 5.79838L75.1817 17.273C74.9782 17.9321 74.6283 18.2617 74.1319 18.2617L72.0567 18.2617C71.5602 18.2617 71.2103 17.9321 71.0069 17.273L67.479 5.79838L67.3936 5.79838C67.4342 6.28665 67.4546 6.77491 67.4546 7.26318L67.4546 17.3462C67.4546 17.9565 67.1697 18.2617 66.6001 18.2617L64.7447 18.2617L64.7447 18.2617ZM35.7145 11.8531C35.7145 9.79415 36.2292 8.17058 37.2587 6.98238C38.2881 5.79425 39.7428 5.20018 41.6227 5.20018C43.8037 5.20018 45.4231 5.76171 46.4811 6.88478C47.539 8.00785 48.068 9.81448 48.068 12.3047C48.068 12.7929 47.8401 13.0371 47.3844 13.0371L39.3278 13.0371C39.458 14.388 39.7916 15.2384 40.3287 15.5884C40.8658 15.9383 41.4884 16.1133 42.1964 16.1133C42.8718 16.1133 43.3886 16.0236 43.7467 15.8444C44.1047 15.665 44.4058 15.4205 44.65 15.1108C44.9267 14.7527 45.2685 14.6957 45.6754 14.9399L46.8961 15.6855C47.1479 15.8393 47.2866 16.0089 47.3124 16.1941C47.3357 16.3621 47.2661 16.543 47.1036 16.7368C46.6072 17.3305 46.0253 17.7738 45.358 18.0666C44.6907 18.3594 43.6368 18.5059 42.1964 18.5059C39.8608 18.5059 38.1965 17.9118 37.2037 16.7237C36.2109 15.5355 35.7145 13.9119 35.7145 11.8531L35.7145 11.8531ZM50.4432 16.4917C50.2641 16.8172 50.374 17.1224 50.7728 17.4072C51.3424 17.8141 52.0301 18.0989 52.8358 18.2617C53.6414 18.4245 54.618 18.5059 55.7655 18.5059C56.7908 18.5059 57.69 18.3634 58.4632 18.0786C59.2363 17.7938 59.8589 17.3136 60.3309 16.6382C60.8029 15.9627 61.0389 15.2303 61.0389 14.4409C61.0389 13.8468 60.9493 13.3179 60.7703 12.8541C60.5913 12.3903 60.3064 12.0078 59.9158 11.7068C59.5252 11.4056 59.1223 11.1737 58.7073 11.011C58.2271 10.8238 57.7551 10.663 57.2913 10.5287C56.8274 10.3943 56.3676 10.2539 55.9119 10.1074C55.6921 10.0342 55.4622 9.95688 55.2222 9.87548C54.9821 9.79408 54.7705 9.66591 54.5875 9.49098C54.4043 9.31598 54.3128 9.07388 54.3128 8.76468C54.3128 8.47168 54.4125 8.23568 54.6119 8.05668C54.8113 7.87761 55.0534 7.75555 55.3382 7.69048C55.623 7.62535 55.9201 7.59278 56.2293 7.59278C56.685 7.59278 57.098 7.65788 57.4683 7.78808C57.8386 7.91828 58.215 8.08918 58.5975 8.30078C59.102 8.57745 59.4682 8.55305 59.6961 8.22758L60.4407 7.14108C60.5283 7.01555 60.5687 6.89265 60.5621 6.77238C60.5501 6.55731 60.3876 6.35065 60.0745 6.15238C59.7653 5.95705 59.2485 5.74951 58.5242 5.52978C57.7999 5.31005 57.0553 5.20018 56.2904 5.20018C55.1592 5.20018 54.2151 5.31818 53.4583 5.55418C52.7015 5.79018 52.085 6.21745 51.609 6.83598C51.1328 7.45445 50.8948 8.17465 50.8948 8.99658C50.8948 9.60691 50.9904 10.1218 51.1817 10.5414C51.3729 10.9608 51.674 11.3412 52.085 11.6826C52.496 12.024 52.9171 12.2893 53.3485 12.4785C53.8693 12.7021 54.4125 12.8978 54.9781 13.0656C55.5437 13.2334 55.977 13.3532 56.2781 13.4251C56.5059 13.4817 56.7216 13.5544 56.9251 13.6432C57.1285 13.732 57.2954 13.8612 57.4256 14.0308C57.5558 14.2003 57.6209 14.4062 57.6209 14.6485C57.6209 15.0553 57.511 15.3646 57.2913 15.5762C57.0715 15.7878 56.803 15.9302 56.4857 16.0034C56.1683 16.0766 55.8265 16.1133 55.4603 16.1133C54.9394 16.1133 54.3636 16.04 53.733 15.8936C53.1022 15.7471 52.5549 15.5192 52.0911 15.21C51.8199 15.0292 51.5904 14.9708 51.4027 15.0348C51.2693 15.0802 51.1569 15.1875 51.0657 15.3565L50.4432 16.4917L50.4432 16.4917ZM87.1333 6.97018C86.0631 8.15025 85.528 9.77788 85.528 11.8531C85.528 13.9282 86.0631 15.5558 87.1333 16.7359C88.2034 17.9159 89.7964 18.5059 91.9123 18.5059C94.0282 18.5059 95.6212 17.9159 96.6914 16.7359C97.7617 15.5558 98.2969 13.9282 98.2969 11.8531C98.2969 9.77788 97.7617 8.15025 96.6914 6.97018C95.6212 5.79018 94.0282 5.20018 91.9123 5.20018C89.7964 5.20018 88.2034 5.79018 87.1333 6.97018L87.1333 6.97018ZM100.977 17.4072C100.578 17.1224 100.468 16.8172 100.647 16.4917L101.27 15.3565C101.361 15.1875 101.474 15.0802 101.607 15.0348C101.795 14.9708 102.024 15.0292 102.295 15.21C102.759 15.5192 103.306 15.7471 103.937 15.8936C104.568 16.04 105.144 16.1133 105.665 16.1133C106.031 16.1133 106.373 16.0766 106.69 16.0034C107.007 15.9302 107.276 15.7878 107.496 15.5762C107.715 15.3646 107.825 15.0553 107.825 14.6485C107.825 14.4062 107.76 14.2003 107.63 14.0308C107.5 13.8612 107.333 13.732 107.129 13.6432C106.926 13.5544 106.71 13.4817 106.482 13.4251C106.181 13.3532 105.748 13.2334 105.182 13.0656C104.617 12.8978 104.074 12.7021 103.553 12.4785C103.122 12.2893 102.7 12.024 102.289 11.6826C101.878 11.3412 101.577 10.9608 101.386 10.5414C101.195 10.1218 101.099 9.60691 101.099 8.99658C101.099 8.17465 101.337 7.45445 101.813 6.83598C102.289 6.21745 102.906 5.79018 103.663 5.55418C104.42 5.31818 105.364 5.20018 106.495 5.20018C107.26 5.20018 108.004 5.31005 108.729 5.52978C109.453 5.74951 109.97 5.95705 110.279 6.15238C110.592 6.35065 110.754 6.55731 110.766 6.77238C110.773 6.89265 110.732 7.01555 110.645 7.14108L109.9 8.22758C109.673 8.55305 109.307 8.57745 108.802 8.30078C108.419 8.08918 108.043 7.91828 107.673 7.78808C107.302 7.65788 106.889 7.59278 106.434 7.59278C106.125 7.59278 105.828 7.62535 105.543 7.69048C105.258 7.75555 105.015 7.87761 104.816 8.05668C104.617 8.23568 104.517 8.47168 104.517 8.76468C104.517 9.07388 104.609 9.31598 104.792 9.49098C104.975 9.66591 105.186 9.79408 105.427 9.87548C105.667 9.95688 105.897 10.0342 106.116 10.1074C106.572 10.2539 107.032 10.3943 107.496 10.5287C107.959 10.663 108.431 10.8238 108.912 11.011C109.327 11.1737 109.729 11.4056 110.12 11.7068C110.511 12.0078 110.796 12.3903 110.975 12.8541C111.154 13.3179 111.243 13.8468 111.243 14.4409C111.243 15.2303 111.007 15.9627 110.535 16.6382C110.063 17.3136 109.441 17.7938 108.668 18.0786C107.895 18.3634 106.995 18.5059 105.97 18.5059C104.823 18.5059 103.846 18.4245 103.04 18.2617C102.235 18.0989 101.547 17.8141 100.977 17.4072L100.977 17.4072ZM132.998 11.8531C132.998 9.79415 133.513 8.17058 134.542 6.98238C135.571 5.79425 137.026 5.20018 138.906 5.20018C141.087 5.20018 142.707 5.76171 143.765 6.88478C144.822 8.00785 145.351 9.81448 145.351 12.3047C145.351 12.7929 145.123 13.0371 144.668 13.0371L136.611 13.0371C136.742 14.388 137.075 15.2384 137.612 15.5884C138.149 15.9383 138.772 16.1133 139.48 16.1133C140.155 16.1133 140.672 16.0236 141.03 15.8444C141.388 15.665 141.689 15.4205 141.934 15.1108C142.211 14.7527 142.552 14.6957 142.959 14.9399L144.18 15.6855C144.431 15.8393 144.57 16.0089 144.596 16.1941C144.619 16.3621 144.55 16.543 144.387 16.7368C143.891 17.3305 143.309 17.7738 142.642 18.0666C141.975 18.3594 140.921 18.5059 139.48 18.5059C137.144 18.5059 135.48 17.9118 134.487 16.7237C133.494 15.5355 132.998 13.9119 132.998 11.8531L132.998 11.8531ZM23.0539 18.2617C22.5656 18.2617 22.3215 18.0175 22.3215 17.5293L22.3215 6.17678C22.3215 5.68851 22.5656 5.44438 23.0539 5.44438L25.0071 5.44438C25.4953 5.44438 25.7395 5.68851 25.7395 6.17678L25.7395 17.5293C25.7395 18.0175 25.4953 18.2617 25.0071 18.2617L23.0539 18.2617L23.0539 18.2617ZM112.969 5.56268C112.822 5.70755 112.807 5.98548 112.923 6.39648L116.096 17.4439C116.251 17.9891 116.548 18.2617 116.988 18.2617L119.197 18.2617C119.661 18.2617 119.958 17.9891 120.087 17.4439L121.846 10.2051C121.952 9.79001 122.027 9.45635 122.072 9.20408C122.117 8.95181 122.147 8.67105 122.163 8.36178L122.212 8.36178C122.229 8.67105 122.259 8.95181 122.304 9.20408C122.349 9.45635 122.424 9.79001 122.53 10.2051L124.288 17.4439C124.418 17.9891 124.715 18.2617 125.178 18.2617L127.388 18.2617C127.827 18.2617 128.124 17.9891 128.279 17.4439L131.453 6.39648C131.569 5.98548 131.554 5.70755 131.407 5.56268C131.327 5.48381 131.208 5.44438 131.05 5.44438L128.987 5.44438C128.596 5.44438 128.352 5.65188 128.255 6.06688L126.607 13.2202C126.509 13.6352 126.423 14.034 126.35 14.4165C126.277 14.799 126.232 15.1123 126.216 15.3565L126.143 15.3565C126.126 15.1123 126.082 14.7929 126.009 14.3982C125.936 14.0035 125.85 13.6108 125.752 13.2202L124.03 6.06688C123.933 5.65188 123.69 5.44438 123.299 5.44438L121.077 5.44438C120.686 5.44438 120.442 5.65188 120.345 6.06688L118.623 13.2202C118.526 13.6108 118.44 14.0035 118.367 14.3982C118.294 14.7929 118.249 15.1123 118.233 15.3565L118.159 15.3565C118.143 15.1123 118.098 14.799 118.025 14.4165C117.952 14.034 117.866 13.6352 117.769 13.2202L116.121 6.06688C116.023 5.65188 115.779 5.44438 115.388 5.44438L113.325 5.44438C113.168 5.44438 113.049 5.48381 112.969 5.56268L112.969 5.56268ZM148.288 6.17678L148.288 12.9395C148.288 15.0553 148.703 16.512 149.533 17.3096C150.363 18.1071 151.401 18.5059 152.646 18.5059C153.447 18.5059 154.14 18.3858 154.726 18.1458C155.312 17.9057 155.795 17.4642 156.174 16.8213L156.174 17.5293C156.174 18.0175 156.418 18.2617 156.906 18.2617L158.835 18.2617C159.324 18.2617 159.568 18.0175 159.568 17.5293L159.568 6.17678C159.568 5.68851 159.325 5.44438 158.84 5.44438L156.901 5.44438C156.416 5.44438 156.174 5.68851 156.174 6.17678L156.174 10.9864C156.174 13.0778 155.956 14.4552 155.521 15.1184C155.086 15.7816 154.449 16.1133 153.61 16.1133C152.829 16.1133 152.317 15.8813 152.072 15.4175C151.828 14.9536 151.706 13.8346 151.706 12.0606L151.706 6.17678C151.706 5.68851 151.462 5.44438 150.974 5.44438L149.021 5.44438C148.532 5.44438 148.288 5.68851 148.288 6.17678L148.288 6.17678ZM39.3278 10.5957L44.65 10.5957C44.65 9.71321 44.4297 8.99211 43.9893 8.43238C43.5488 7.87265 42.8473 7.59278 41.8849 7.59278C41.1181 7.59278 40.5105 7.86038 40.0619 8.39558C39.6133 8.93078 39.3686 9.66415 39.3278 10.5957L39.3278 10.5957ZM89.8554 15.1428C89.3793 14.4958 89.1413 13.3993 89.1413 11.8531C89.1413 10.3068 89.3793 9.21021 89.8554 8.56328C90.3315 7.91628 91.0171 7.59278 91.9123 7.59278C92.8075 7.59278 93.4931 7.91628 93.9692 8.56328C94.4452 9.21021 94.6833 10.3068 94.6833 11.8531C94.6833 13.3993 94.4452 14.4958 93.9692 15.1428C93.4931 15.7898 92.8075 16.1133 91.9123 16.1133C91.0171 16.1133 90.3315 15.7898 89.8554 15.1428L89.8554 15.1428ZM136.611 10.5957L141.934 10.5957C141.934 9.71321 141.714 8.99211 141.273 8.43238C140.832 7.87265 140.131 7.59278 139.168 7.59278C138.401 7.59278 137.794 7.86038 137.345 8.39558C136.896 8.93078 136.652 9.66415 136.611 10.5957L136.611 10.5957Z" id="Shape" fill="#737582" fill-rule="evenodd" stroke="none" />
        </g>
      </g>
    </g>
  </g>
</svg>